<?xml version="1.0" encoding="UTF-8"?>
<svg id="Layer_1" data-name="Layer 1" xmlns="http://www.w3.org/2000/svg" viewBox="0 0 114 114" fill="#E2EEE0">
  <defs>
    <style>
      .cls-1 {
        fill: none;
      }
    </style>
  </defs>
  <g>
    <path d="M18,2c-7.7,0-14,6.3-14,14s6.3,14,14,14,14-6.3,14-14S25.7,2,18,2ZM23,5.1c1.1.5,2,1.1,2.9,1.9l-.4,1h-2.5v-2.9h0ZM15.4,27.7c-6.5-1.4-10.5-7.8-9.1-14.3.6-2.5,1.9-4.8,3.8-6.4l1.4,2h3.3l-1.5,4h-4l-1.4,4.2,2.6,3.9h5l1.4,2.1s-1.5,4.6-1.5,4.6ZM18,28c-.2,0-.4,0-.6,0l1.4-4.2c.2-.6.1-1.2-.2-1.7l-1.4-2.1c-.4-.6-1-.9-1.7-.9h-3.9l-1.4-2.1.6-1.9h2.3v2h2v-2.8l2.9-7.8-1.9-.7-.5,1.3h-3l-.8-1.2c2.8-1.7,6.1-2.2,9.3-1.4v3.6c0,1.1.9,2,2,2h2.6c.5,0,1-.2,1.4-.6h.1c0-.1.3-.8.3-.8.8,1,1.4,2.2,1.9,3.4h-4.7c-1,0-1.8.7-2,1.7l-.6,3.4c-.1.8.2,1.7,1,2.1l2.2,1.5,1.5,3.6c-2.3,2.4-5.4,3.7-8.6,3.7h0ZM26.8,19.3l-2.7-1.8h-.1c0,0,.6-3.5.6-3.5h5.2c.5,2.9-.1,6-1.7,8.5l-1.3-3.1h0Z"/>
    <g id="_Transparent_Rectangle_" data-name=" Transparent Rectangle ">
      <rect class="cls-1" x="2" width="32" height="32"/>
    </g>
  </g>
  <g>
    <rect x="42.3" y="62.4" width="31.5" height="2.2"/>
    <rect x="42.3" y="66.9" width="31.5" height="2.2"/>
    <path d="M67.1,48.9c-1.2,0-2.2,1-2.2,2.2s1,2.2,2.2,2.2,2.2-1,2.2-2.2-1-2.2-2.2-2.2Z"/>
    <path d="M58.1,55.7c-2.5,0-4.5-2-4.5-4.5s2-4.5,4.5-4.5,4.5,2,4.5,4.5-2,4.5-4.5,4.5ZM58.1,48.9c-1.2,0-2.2,1-2.2,2.2s1,2.2,2.2,2.2,2.2-1,2.2-2.2-1-2.2-2.2-2.2Z"/>
    <path d="M49.1,48.9c-1.2,0-2.2,1-2.2,2.2s1,2.2,2.2,2.2,2.2-1,2.2-2.2-1-2.2-2.2-2.2Z"/>
    <path d="M71.6,60.2h-27c-1.2,0-2.2-1-2.2-2.2v-13.5c0-1.2,1-2.2,2.2-2.2h27c1.2,0,2.2,1,2.2,2.2v13.5c0,1.2-1,2.2-2.2,2.2ZM71.6,44.4h-27v13.5h27v-13.5Z"/>
    <rect id="_Transparent_Rectangle_-2" data-name=" Transparent Rectangle -2" class="cls-1" x="40" y="38" width="36" height="36"/>
  </g>
  <path d="M108,96c0-1.6-.4-3.2-1.1-4.6l-1.5,1.5c.4,1,.6,2.1.6,3.1h2Z"/>
  <path d="M105.4,90l-1.4-1.4-4.7,4.7c-.4-.2-.8-.3-1.3-.3-1.7,0-3,1.3-3,3s1.3,3,3,3,3-1.3,3-3-.1-.9-.3-1.3c0,0,4.7-4.7,4.7-4.7ZM98,97c-.6,0-1-.4-1-1s.4-1,1-1,1,.4,1,1-.4,1-1,1Z"/>
  <path d="M98,88c1.1,0,2.1.2,3.1.6l1.5-1.5c-4.9-2.6-10.9-.7-13.5,4.2-.8,1.4-1.1,3-1.1,4.7h2c0-4.4,3.6-8,8-8h0Z"/>
  <path d="M98,110c-7.7,0-14-6.3-14-14s6.3-14,14-14,14,6.3,14,14-6.3,14-14,14ZM98,84c-6.6,0-12,5.4-12,12s5.4,12,12,12,12-5.4,12-12-5.4-12-12-12Z"/>
  <rect id="_Transparent_Rectangle_-3" data-name=" Transparent Rectangle -3" class="cls-1" x="82" y="80" width="32" height="32"/>
  <g>
    <rect x="13.8" y="91.8" width="2.1" height="12.8"/>
    <rect x="20.1" y="91.8" width="2.1" height="12.8"/>
    <path d="M5.2,85.4v2.1h2.1v21.2c0,1.2.9,2.1,2.1,2.1h17c1.2,0,2.1-.9,2.1-2.1v-21.2h2.1v-2.1H5.2ZM9.5,108.8v-21.2h17v21.2H9.5Z"/>
    <rect x="13.8" y="81.1" width="8.5" height="2.1"/>
    <rect id="_Transparent_Rectangle_-4" data-name=" Transparent Rectangle -4" class="cls-1" x="1" y="79" width="34" height="34"/>
  </g>
  <g>
    <path d="M94.1,2c-1.9,0-3.8.5-5.4,1.6l6.4,6.4c.9.8,1,2.1.2,3,0,0,0,0,0,0-.9.8-2.2.7-3-.2,0,0,0,0,0,0l-6.6-6.4c-1.1,1.7-1.7,3.7-1.7,5.7,0,5.6,4.5,10.1,10.1,10.1.9,0,1.8-.1,2.6-.3l6.7,6.7c2,2,5.1,2,7.1,0s2-5.1,0-7.1l-6.7-6.7c.2-.9.3-1.7.3-2.6.1-5.5-4.3-10.1-9.8-10.2,0,0-.1,0-.2,0ZM102.1,12.1c0,.7,0,1.4-.3,2.1l-.3,1.1.8.8,6.7,6.7c.6.5.9,1.3.9,2.1,0,.8-.3,1.6-.9,2.1-1.1,1.2-2.9,1.2-4.1.1,0,0,0,0,0-.1l-6.7-6.7-.8-.8-1.1.3c-.7.2-1.4.3-2.1.3-2.1,0-4.2-.8-5.7-2.3-1.6-1.5-2.4-3.6-2.4-5.7,0-.7,0-1.5.3-2.2l4.4,4.4c1.6,1.7,4.2,1.8,5.8.2,0,0,0,0,0,0,1.6-1.7,1.5-4.3-.2-5.8,0,0,0,0,0,0l-4.4-4.4c.7-.2,1.3-.3,2-.3,2.1,0,4.2.8,5.7,2.3,1.5,1.6,2.4,3.7,2.4,5.9Z"/>
    <rect id="_Transparent_Rectangle_-5" data-name=" Transparent Rectangle -5" class="cls-1" x="82" width="32" height="32"/>
  </g>
  <g>
    <path d="M51.2,111.8h-6.8c-1.2,0-2.2-1-2.2-2.2v-13.5c0-1.2,1-2.2,2.2-2.2h6.8c1.2,0,2.2,1,2.2,2.2v13.5c0,1.2-1,2.2-2.2,2.2ZM44.5,96v13.5h6.8v-13.5h-6.8Z"/>
    <path d="M71.5,82.5h-24.8c-1.2,0-2.2,1-2.2,2.2v6.8h2.2v-6.8h24.8v15.8h-15.8v2.2h2.2v4.5h-2.2v2.2h10.1v-2.2h-5.6v-4.5h11.2c1.2,0,2.2-1,2.2-2.2v-15.8c0-1.2-1-2.2-2.2-2.2Z"/>
    <rect id="_Transparent_Rectangle_-6" data-name=" Transparent Rectangle -6" class="cls-1" x="40" y="78" width="36" height="36"/>
  </g>
  <g>
    <path d="M53,11v10h10v-10h-10ZM61,19h-6v-6h6v6Z"/>
    <path d="M72,13v-2h-4v-3c0-1.1-.9-2-2-2h-3V2h-2v4h-6V2h-2v4h-3c-1.1,0-2,.9-2,2v3h-4v2h4v6h-4v2h4v3c0,1.1.9,2,2,2h3v4h2v-4h6v4h2v-4h3c1.1,0,2-.9,2-2v-3h4v-2h-4v-6h4ZM66,24h-16V8h16v16Z"/>
    <rect id="_Transparent_Rectangle_-7" data-name=" Transparent Rectangle -7" class="cls-1" x="42" width="32" height="32"/>
  </g>
  <g>
    <path d="M108,54h-2v2h2c1.7,0,3,1.3,3,3v4h2v-4c0-2.8-2.2-5-5-5Z"/>
    <path d="M106,44c1.7,0,3,1.3,3,3s-1.3,3-3,3-3-1.3-3-3,1.3-3,3-3M106,42c-2.8,0-5,2.2-5,5s2.2,5,5,5,5-2.2,5-5-2.2-5-5-5Z"/>
    <path d="M105,70h-2v-2c0-1.7-1.3-3-3-3h-4c-1.7,0-3,1.3-3,3v2h-2v-2c0-2.8,2.2-5,5-5h4c2.8,0,5,2.2,5,5v2Z"/>
    <path d="M98,53c1.7,0,3,1.3,3,3s-1.3,3-3,3-3-1.3-3-3,1.3-3,3-3M98,51c-2.8,0-5,2.2-5,5s2.2,5,5,5,5-2.2,5-5-2.2-5-5-5Z"/>
    <path d="M90,54h-2c-2.8,0-5,2.2-5,5v4h2v-4c0-1.7,1.3-3,3-3h2v-2Z"/>
    <path d="M90,44c1.7,0,3,1.3,3,3s-1.3,3-3,3-3-1.3-3-3,1.3-3,3-3M90,42c-2.8,0-5,2.2-5,5s2.2,5,5,5,5-2.2,5-5-2.2-5-5-5Z"/>
    <rect id="_Transparent_Rectangle_-8" data-name=" Transparent Rectangle -8" class="cls-1" x="82" y="40" width="32" height="32"/>
  </g>
  <g>
    <path d="M20,71.8l-2-1.1,4.5-7.9h6.8c1.2,0,2.2-1,2.2-2.2v-13.5c0-1.2-1-2.2-2.2-2.2H6.8c-1.2,0-2.2,1-2.2,2.2v13.5c0,1.2,1,2.2,2.2,2.2h10.1v2.3H6.8c-2.5,0-4.5-2-4.5-4.5v-13.5c0-2.5,2-4.5,4.5-4.5h22.5c2.5,0,4.5,2,4.5,4.5v13.5c0,2.5-2,4.5-4.5,4.5h-5.5l-3.9,6.8h0Z"/>
    <rect x="9" y="49.2" width="18" height="2.2"/>
    <rect x="9" y="56" width="11.2" height="2.2"/>
    <rect id="_Transparent_Rectangle_-9" data-name=" Transparent Rectangle -9" class="cls-1" y="38" width="36" height="36"/>
  </g>
</svg>